<svg width="90" height="59" viewBox="0 0 90 59" fill="none" xmlns="http://www.w3.org/2000/svg">
<path d="M73.4531 26.2471C73.4531 26.2471 74.6406 31.1462 74.9062 32.1734H69.6875C70.2031 31.0013 72.1875 26.4446 72.1875 26.4446C72.1562 26.4842 72.7031 25.2462 73.0156 24.4824L73.4531 26.2471ZM90 6.32143V52.6786C90 56.1685 86.6406 59 82.5 59H7.5C3.35938 59 0 56.1685 0 52.6786V6.32143C0 2.83147 3.35938 0 7.5 0H82.5C86.6406 0 90 2.83147 90 6.32143ZM23.8281 39.4036L33.7031 18.9643H27.0625L20.9219 32.9241L20.25 30.0926L18.0625 20.6895C17.7031 19.3857 16.5938 19.017 15.2188 18.9643H5.10938L5 19.3725C7.46875 19.8993 9.67187 20.6632 11.5937 21.6246L17.1875 39.4036H23.8281ZM38.5781 39.4299L42.5156 18.9643H36.2344L32.3125 39.4299H38.5781V39.4299ZM60.4375 32.7397C60.4687 30.4087 58.7813 28.6308 55.1719 27.169C52.9688 26.2339 51.625 25.6018 51.625 24.6404C51.6562 23.7712 52.7656 22.8757 55.2344 22.8757C57.2813 22.8362 58.7812 23.2444 59.9062 23.6527L60.4688 23.8766L61.3281 19.4516C60.0937 19.0433 58.125 18.5824 55.7031 18.5824C49.5 18.5824 45.1406 21.3743 45.1094 25.3516C45.0625 28.2884 48.2344 29.9214 50.6094 30.9092C53.0312 31.91 53.8594 32.5685 53.8594 33.4509C53.8281 34.8205 51.8906 35.4527 50.0938 35.4527C47.5938 35.4527 46.25 35.1234 44.2031 34.3596L43.375 34.0304L42.5 38.6266C43.9687 39.1929 46.6875 39.6933 49.5 39.7196C56.0937 39.7328 60.3906 36.9804 60.4375 32.7397ZM82.5 39.4299L77.4375 18.9643H72.5781C71.0781 18.9643 69.9375 19.333 69.2969 20.6632L59.9687 39.4299H66.5625C66.5625 39.4299 67.6406 36.9013 67.875 36.3614H75.9375C76.125 37.0857 76.6875 39.4299 76.6875 39.4299H82.5Z" fill="black"/>
</svg>
